<?xml version="1.0" encoding="UTF-8"?>
<svg id="svg1456" width="245.08293" height="353.14648" version="1.1" viewBox="0 0 245.08293 353.14648" xmlns="http://www.w3.org/2000/svg" xmlns:cc="http://creativecommons.org/ns#" xmlns:rdf="http://www.w3.org/1999/02/22-rdf-syntax-ns#">
 <!-- Generator: Sketch 42 (36781) - http://www.bohemiancoding.com/sketch -->
 <g id="Symbols" transform="matrix(.66667 0 0 .66667 -74.792853 -20.792512)" fill="none" fill-rule="evenodd">
  <g id="logo-square">
   <g id="logo-plain" transform="translate(110,31)">
    <g id="logo-vector" transform="translate(2)">
     <g id="Group-2" fill-rule="nonzero">
      <g id="Container" transform="translate(18.164103)">
       <polygon id="Fill" points="3.3733333 265 166.61436 5.2811388 329.87897 265 166.61436 524.81317" fill="#00ccff"/>
       <path id="Border" d="M 166.61436,10.373666 326.67077,265 166.61436,519.72064 6.5815385,265 Z m 0,-10.1850539 -4.6,7.3087189 L 1.9579487,262.12367 0.14153846,265 1.9579487,267.87633 162.01436,522.59698 l 4.6,7.30871 4.6,-7.30871 L 331.27077,267.87633 333.08718,265 331.27077,262.12367 171.21436,7.497331 Z" fill="#000000"/>
      </g>
      <g id="YelloBand" transform="translate(0,378.16726)">
       <g id="Ribbon">
        <path id="Shape" d="m184 69.550712c-104.00718 0-182.089231-34.162367-182.089231-34.162367l29.510769-13.815836-11.653333-20.0871887c69.330256 25.6512457 125.308715 28.0796267 164.231795 28.0796267s94.92513-2.428381 164.23179-28.0796267l-11.65333 20.0871887 29.51077 13.815836s-78.10564 34.162367-182.08923 34.162367z" fill="#ffff00"/>
        <path id="path1152" d="m184 70.258007c-23.75487 0-48.12308-1.791815-72.42051-5.351868-19.437952-2.829182-38.89949-6.790036-57.794875-11.76468-32.2-8.463968-51.944615-17.022242-52.1569227-17.116548l-1.43897435-0.636566 30.242051-14.145907-12.266666-21.1009789 1.84 0.68371887c66.758974 24.708185 120.378457 28.032473 163.995897 28.032473s97.23692-3.324288 163.9959-28.032473l1.84-0.68371887-12.26667 21.1009789 30.24205 14.145907-1.43897 0.636566c-0.18872 0.09431-19.95692 8.65258-52.15692 17.116548-18.91898 4.974644-38.35693 8.911922-57.79488 11.76468-24.29743 3.560053-48.66564 5.351868-72.42051 5.351868zm-180.36718-34.893238c5.1189744 2.098309 23.377436 9.312722 50.505641 16.432829 29.628717 7.780249 76.194869 17.045818 129.837949 17.045818 53.61949 0 100.20923-9.265569 129.83795-17.045818 27.15179-7.120107 45.41025-14.33452 50.50564-16.432829l-28.77949-13.462189 11.06359-19.049822c-30.52513 11.15169-60.57846 18.696174-91.83487 23.010676-28.33128 3.913701-52.72308 4.432384-70.81641 4.432384s-42.48513-0.495106-70.81641-4.432384c-31.232821-4.338078-61.286155-11.858986-91.834873-23.010676l11.06359 19.049822z" fill="#000000"/>
       </g>
       <g id="University" transform="translate(45.528205,33.714413)" fill="#000000">
        <path id="path1155" d="m2.1938462 0.07072954 1.8871794 0.5658363-1.5333333 5.06895016c-0.2358974 0.8016014-0.3774359 1.3438612-0.4010256 1.5796263-0.0235898 0.4008008 0.0707692 0.778025 0.3066666 1.1080961 0.2358975 0.3300712 0.6133334 0.5658363 1.1558975 0.7308719s0.9671795 0.1650356 1.3210256 0.0471531c0.3302564-0.1414591 0.5897436-0.3536477 0.7312821-0.6601424 0.1415384-0.3064947 0.3302564-0.8251779 0.5661538-1.5560498l1.5805128-5.1868328 1.8871795 0.5658363-1.4861538 4.9274911c-0.3302564 1.1316726-0.6369231 1.9096976-0.8728205 2.3340748-0.2358975 0.4243774-0.5425642 0.7780254-0.92 1.0137904-0.3774359 0.235765-0.8256411 0.377224-1.3446154 0.424377-0.5189744 0.047153-1.1558975-0.047153-1.8871795-0.259342-0.8964103-0.282918-1.5333334-0.589413-1.934359-0.9194838-0.40102563-0.3536477-0.68410255-0.7308719-0.84923076-1.1316726-0.1651282-0.4008007-0.23589744-0.8016014-0.21230769-1.2024021 0.04717949-0.5658363 0.21230769-1.3910143 0.5425641-2.4283808z"/>
        <polygon id="polygon1157" points="17.385641 11.245996 19.084103 4.9274911 20.853333 5.3990213 18.305641 14.853203 16.394872 14.33452 14.248205 7.1436833 12.596923 13.297153 10.804103 12.849199 13.351795 3.3950178 15.215385 3.8901246"/>
        <polygon id="polygon1159" points="24.627692 6.3420818 26.538462 6.8136121 24.179487 16.314947 22.268718 15.843416"/>
        <polygon id="polygon1161" points="32.530256 18.271797 30.454359 17.800267 29.204103 7.4737545 31.30359 7.9452847 32.129231 15.560498 36.068718 9.0298043 38.121026 9.5013345"/>
        <polygon id="polygon1163" points="40.881026 10.090747 48.005128 11.528915 47.674872 13.155694 42.485128 12.118327 42.060513 14.240213 46.872821 15.20685 46.542564 16.83363 41.730256 15.866993 41.211282 18.483986 46.566154 19.568505 46.235897 21.195285 38.946667 19.686388"/>
        <path id="path1165" d="m49.915897 21.831851 1.698462-9.642794 4.104615 0.730872c1.037949 0.188612 1.769231 0.400801 2.193847 0.660142 0.448205 0.259342 0.754871 0.636566 0.967179 1.131673s0.259487 1.01379 0.141538 1.603203c-0.117948 0.730871-0.448205 1.273131-0.943589 1.673932-0.518975 0.400801-1.203077 0.589413-2.075898 0.565836 0.377436 0.330071 0.684103 0.660143 0.896411 0.990214 0.212307 0.353647 0.495384 0.919484 0.825641 1.768238l0.84923 2.09831-2.335384-0.400801-1.037949-2.334075c-0.377436-0.848754-0.636923-1.367437-0.778462-1.603202-0.141538-0.235766-0.330256-0.400801-0.518974-0.495107-0.188718-0.117883-0.518974-0.212189-0.967179-0.282918l-0.401026-0.07073-0.707692 4.031584zm2.925129-5.21041 1.438974 0.259342c0.94359 0.165035 1.533333 0.235765 1.769231 0.188612 0.235897-0.04715 0.448205-0.141459 0.613333-0.306495 0.165128-0.165035 0.283077-0.4008 0.330256-0.683719 0.04718-0.330071 0.02359-0.612989-0.117948-0.825177-0.141539-0.235766-0.353846-0.400801-0.660513-0.518684-0.165128-0.04715-0.636923-0.141459-1.415385-0.282918l-1.509743-0.259341z"/>
        <path id="path1167" d="m61.64 20.629448 1.934359 0.09431c0.02359 0.660143 0.188718 1.15525 0.471795 1.508897 0.306667 0.353648 0.754872 0.565836 1.344615 0.660143 0.636923 0.09431 1.132308 0.02358 1.486154-0.188613 0.353846-0.212188 0.566154-0.495106 0.613333-0.87233 0.02359-0.235766 0-0.424378-0.117948-0.61299-0.117949-0.188612-0.330257-0.353648-0.636923-0.518683-0.212308-0.117883-0.707693-0.330071-1.509744-0.660142-1.014359-0.424378-1.698461-0.848755-2.052308-1.296709-0.518974-0.612989-0.707692-1.320284-0.589743-2.074733 0.07077-0.495107 0.283077-0.94306 0.636923-1.320284 0.353846-0.377225 0.802051-0.660143 1.368205-0.801602s1.203077-0.165035 1.957949-0.04715c1.226666 0.188612 2.099487 0.589413 2.618461 1.225979 0.542564 0.636566 0.754872 1.391014 0.636923 2.286922l-1.957948-0.212189c0-0.518683-0.141539-0.895908-0.377436-1.155249-0.235898-0.259342-0.636923-0.424377-1.179488-0.518684-0.566153-0.09431-1.037948-0.04715-1.391794 0.14146-0.235898 0.117882-0.353846 0.306494-0.401026 0.542259-0.02359 0.235765 0.02359 0.447954 0.212308 0.636566 0.212307 0.235765 0.778461 0.54226 1.698461 0.919484s1.580513 0.707296 2.005128 1.01379c0.424616 0.306495 0.731282 0.683719 0.92 1.155249 0.188718 0.447954 0.235898 0.990214 0.141539 1.603203-0.09436 0.565836-0.306667 1.060943-0.707692 1.485321-0.377436 0.447953-0.872821 0.730871-1.462564 0.87233-0.589744 0.14146-1.321026 0.165036-2.170257 0.02358-1.226667-0.188622-2.123077-0.612999-2.689231-1.273142-0.566154-0.636566-0.825641-1.508897-0.802051-2.616993z"/>
        <polygon id="polygon1169" points="73.977436 15.772687 75.935385 16.032028 74.637949 25.721975 72.68 25.462633"/>
        <path id="path1171" d="m79.686154 16.527135 3.585641 0.424377c0.802051 0.09431 1.415384 0.235766 1.84 0.400801 0.542564 0.235765 1.014359 0.589413 1.368205 1.060943s0.613333 1.037367 0.754872 1.673933c0.141538 0.636565 0.165128 1.41459 0.04718 2.334074-0.09436 0.801602-0.283077 1.485321-0.542564 2.02758-0.330256 0.683719-0.731282 1.202403-1.250256 1.603203-0.377436 0.282918-0.872821 0.495107-1.462564 0.61299-0.448205 0.09431-1.037949 0.09431-1.769231 0l-3.70359-0.424378zm1.769231 1.862545-0.754872 6.436388 1.462564 0.165035c0.542564 0.07073 0.94359 0.07073 1.203077 0.04715 0.330256-0.04715 0.613333-0.141459 0.849231-0.306494 0.235897-0.165036 0.448205-0.447954 0.613333-0.872331 0.188718-0.424378 0.306667-1.01379 0.401026-1.768239 0.09436-0.754448 0.09436-1.343861 0-1.744662-0.09436-0.424377-0.235898-0.754448-0.448206-1.01379-0.212307-0.259341-0.495384-0.447954-0.84923-0.565836-0.259488-0.09431-0.802052-0.188612-1.604103-0.282918z"/>
        <path id="path1173" d="m99.218462 28.386121-2.146667-0.188612-0.660513-2.286922-3.892308-0.353648-1.014359 2.145463-2.099487-0.188612 4.694359-9.407028 2.075898 0.188612zm-3.278975-4.196619-1.014359-3.748666-1.651282 3.489324z"/>
        <path id="path1175" d="m102.94564 18.837633 3.60923 0.235766c0.80205 0.04715 1.43898 0.165035 1.84 0.306494 0.56616 0.212189 1.03795 0.54226 1.41539 0.990214 0.37743 0.447954 0.66051 1.01379 0.82564 1.650356 0.16513 0.636565 0.2359 1.41459 0.16513 2.334074-0.0472 0.801602-0.18872 1.485321-0.44821 2.051157-0.28308 0.683719-0.6841 1.249555-1.1559 1.650356-0.35384 0.306494-0.84923 0.54226-1.43897 0.683719-0.44821 0.117882-1.03795 0.141459-1.76923 0.09431l-3.70359-0.259342zm1.86359 1.791815-0.42462 6.459965 1.46257 0.09431c0.54256 0.04715 0.94359 0.02358 1.20308-0.02358 0.33025-0.04715 0.58974-0.165035 0.82564-0.353647 0.21231-0.165036 0.42461-0.471531 0.58974-0.919484 0.16513-0.424378 0.25949-1.01379 0.33026-1.768239 0.0472-0.754448 0.0236-1.343861-0.0944-1.744662-0.11795-0.424377-0.28308-0.730872-0.49539-0.990213-0.23589-0.235765-0.51897-0.424377-0.87282-0.518684-0.28307-0.07073-0.80205-0.141459-1.6041-0.212188z"/>
        <polygon id="polygon1177" points="114.62256 19.568505 121.8882 19.875 121.81744 21.525356 116.53333 21.289591 116.43897 23.45863 121.34564 23.670818 121.27487 25.321174 116.36821 25.108986 116.25026 27.773132 121.72308 28.008897 121.65231 29.659253 114.19795 29.352758"/>
        <path id="path1179" d="m139.58051 29.989324-2.14666-0.02358-0.84923-2.239768-3.9159-0.02358-0.82564 2.216192-2.09949-0.02358 3.89231-9.760676 2.09948 0.02358zm-3.60923-3.913701-1.32102-3.65436-1.34462 3.630783z"/>
        <path id="path1181" d="m147.24718 26.264235-0.0236-1.650356 4.26974-0.07073 0.0708 3.890125c-0.40102 0.400801-0.99077 0.778025-1.76923 1.08452-0.77846 0.330071-1.58051 0.495106-2.38256 0.495106-1.01436 0.02358-1.91077-0.188612-2.68923-0.589413-0.77847-0.424377-1.34462-1.01379-1.74564-1.815391-0.40103-0.801601-0.61334-1.650356-0.61334-2.593416-0.0236-1.01379 0.18872-1.933274 0.58975-2.734876 0.42461-0.801601 1.03794-1.414591 1.84-1.862544 0.61333-0.330071 1.39179-0.518684 2.33538-0.518684 1.22667-0.02358 2.17026 0.212189 2.85436 0.707296s1.1559 1.202402 1.3682 2.098309l-1.95794 0.400801c-0.14154-0.47153-0.42462-0.848754-0.80206-1.131672-0.37743-0.282919-0.87282-0.400801-1.43897-0.400801-0.87282 0.02358-1.55692 0.306495-2.05231 0.848754-0.49538 0.565837-0.73128 1.367438-0.73128 2.451958 0.0236 1.155249 0.30667 2.02758 0.82564 2.593416 0.51898 0.565836 1.20308 0.848754 2.05231 0.825178 0.42461 0 0.82564-0.09431 1.25026-0.259342 0.42461-0.165035 0.77846-0.377224 1.06153-0.612989l-0.0236-1.249555z"/>
        <path id="path1183" d="m154.84308 24.849644c-0.0472-0.990213 0.0708-1.838968 0.33025-2.522687 0.18872-0.518683 0.49539-0.966637 0.84923-1.391014 0.37744-0.424377 0.77847-0.730872 1.22667-0.94306 0.58974-0.282919 1.29744-0.447954 2.09949-0.471531 1.43897-0.07073 2.61846 0.330071 3.51487 1.178826 0.89641 0.848754 1.39179 2.074733 1.46256 3.677936 0.0708 1.579626-0.30666 2.829181-1.1323 3.772242-0.82565 0.919484-1.95795 1.438167-3.37334 1.48532-1.46256 0.07073-2.64205-0.330071-3.53846-1.178825-0.89641-0.848755-1.39179-2.051157-1.43897-3.607207zm2.02871-0.141459c0.0472 1.108096 0.35385 1.933274 0.87282 2.475534 0.54257 0.54226 1.20308 0.801601 1.98154 0.778025 0.77846-0.02358 1.41539-0.353648 1.91077-0.943061 0.4718-0.589413 0.68411-1.461744 0.63693-2.593416-0.0472-1.131673-0.33026-1.956851-0.84924-2.475534-0.51897-0.518683-1.17948-0.778025-2.00512-0.730872-0.82564 0.04715-1.46257 0.353648-1.93436 0.919484-0.44821 0.589413-0.66052 1.438167-0.61334 2.56984z"/>
        <path id="path1185" d="m167.39282 25.910587 1.91077-0.330071c0.16513 0.636566 0.42461 1.08452 0.80205 1.367438s0.87282 0.4008 1.46256 0.353647c0.63693-0.04715 1.10872-0.212188 1.41539-0.495106 0.30667-0.282919 0.4482-0.61299 0.42461-0.966637-0.0236-0.235766-0.0943-0.424378-0.23589-0.565837-0.14154-0.141459-0.40103-0.282918-0.73128-0.377224-0.2359-0.07073-0.77847-0.165035-1.60411-0.306495-1.08513-0.188612-1.84-0.47153-2.2882-0.801601-0.63693-0.495107-0.99077-1.131673-1.03795-1.909697-0.0236-0.495107 0.0708-0.966638 0.33026-1.414591 0.25948-0.447954 0.63692-0.801602 1.15589-1.08452 0.51898-0.259341 1.1559-0.424377 1.91077-0.47153 1.22667-0.09431 2.17026 0.117883 2.83077 0.612989 0.66051 0.495107 1.03795 1.178826 1.13231 2.074733l-1.95795 0.212189c-0.11795-0.495107-0.33026-0.848754-0.61333-1.037367-0.28308-0.212188-0.7077-0.282918-1.27385-0.235765-0.56615 0.04715-1.01436 0.188612-1.32103 0.447954-0.18871 0.165036-0.28307 0.377224-0.28307 0.636566 0.0236 0.235765 0.11795 0.424377 0.33025 0.565836 0.25949 0.188612 0.87282 0.377224 1.86359 0.518683 0.99077 0.14146 1.69847 0.353648 2.17026 0.565837 0.4718 0.212188 0.84923 0.518683 1.1559 0.919484 0.28307 0.4008 0.4482 0.919484 0.49538 1.532473 0.0472 0.565836-0.0708 1.08452-0.35384 1.603203-0.28308 0.518683-0.68411 0.895907-1.25026 1.178826-0.54256 0.282918-1.25026 0.447953-2.09949 0.495106-1.22666 0.09431-2.19384-0.141459-2.90154-0.660142-0.70769-0.518683-1.22666-1.343861-1.43897-2.428381z"/>
        <polygon id="polygon1187" points="185.6041 19.474199 182.72615 19.733541 183.45744 27.843861 181.4759 28.032473 180.74462 19.922153 177.84308 20.181495 177.70154 18.531139 185.46256 17.823843"/>
        <polygon id="polygon1189" points="188.52923 17.493772 190.48718 17.281584 191.52513 27.018683 189.59077 27.230872"/>
        <polygon id="polygon1191" points="200.98461 22.633452 200.15897 16.149911 201.97538 15.914146 203.20205 25.627669 201.2441 25.887011 196.52615 20.040036 197.3282 26.382117 195.5118 26.594306 194.28513 16.880783 196.1959 16.645018"/>
        <polygon id="polygon1193" points="205.86769 15.371886 207.82564 15.065392 208.3918 18.884787 212.21333 18.31895 211.64718 14.499555 213.60513 14.19306 215.06769 23.883007 213.10974 24.189502 212.47282 19.945729 208.65128 20.511566 209.28821 24.755338 207.33026 25.061833"/>
        <path id="path1195" d="m217.87487 18.531139c-0.16513-0.990214-0.16513-1.838968 0-2.546264 0.14154-0.518683 0.35385-1.01379 0.66051-1.48532 0.30667-0.447954 0.68411-0.825178 1.08513-1.084519 0.56616-0.353648 1.22667-0.61299 2.00513-0.754449 1.41539-0.259341 2.64205 0 3.65641 0.707296 1.01436 0.730871 1.65128 1.886121 1.93436 3.44217 0.28308 1.55605 0.0708 2.852758-0.61333 3.866548-0.68411 1.037367-1.74564 1.673933-3.16103 1.909698-1.43897 0.259342-2.64205 0.02358-3.65641-0.707295-1.01436-0.683719-1.65128-1.791815-1.91077-3.347865zm1.98154-0.400801c0.18872 1.08452 0.58974 1.886121 1.20308 2.357651 0.61333 0.471531 1.29743 0.636566 2.0759 0.495107 0.77846-0.141459 1.3682-0.518683 1.76922-1.178826 0.40103-0.660142 0.49539-1.532473 0.30667-2.640569s-0.58974-1.886121-1.1559-2.334075c-0.58974-0.447953-1.27384-0.612989-2.07589-0.47153s-1.3918 0.54226-1.79282 1.178826c-0.40103 0.636565-0.51898 1.48532-0.33026 2.593416z"/>
        <polygon id="polygon1197" points="242.50256 15.371886 241.11077 8.9826512 242.90359 8.605427 244.97949 18.177491 243.04513 18.601868 237.83179 13.202847 239.17641 19.450623 237.38359 19.804271 235.30769 10.232206 237.19487 9.8314057"/>
        <polygon id="polygon1199" points="246.70154 7.7330961 253.75487 6.0120107 254.1559 7.6152135 249.01333 8.8647687 249.53231 10.963078 254.32103 9.8078292 254.72205 11.411032 249.93333 12.566281 250.57026 15.159698 255.87795 13.862989 256.27897 15.466192 249.01333 17.234431"/>
        <polygon id="polygon1201" points="264.53539 4.833185 261.72821 5.5876335 263.85128 13.438612 261.9641 13.957295 259.84103 6.1063167 257.03385 6.8607651 256.60923 5.2575623 264.11077 3.2299822"/>
        <path id="path1203" d="m267.83795 7.3322954c-0.28308-0.9430605-0.40103-1.791815-0.30667-2.5226869 0.0708-0.5422598 0.2359-1.060943 0.4718-1.5560498 0.25948-0.4951067 0.56615-0.8959074 0.96718-1.2024021 0.51897-0.4243772 1.15589-0.7544484 1.91077-0.9902135 1.39179-0.42437726 2.61846-0.33007121 3.70358 0.2829181 1.08513 0.6129893 1.86359 1.6739324 2.33539 3.2064057 0.4482 1.5088968 0.40103 2.8291815-0.16513 3.9137011-0.56615 1.1080961-1.53333 1.862545-2.90154 2.286922-1.39179 0.424377-2.64205 0.330071-3.70359-0.259342-1.08513-0.6129893-1.86359-1.6739323-2.31179-3.1592526zm1.93436-0.6601424c0.33025 1.0609431 0.80205 1.791815 1.46256 2.1926157s1.36821 0.4951067 2.12308 0.2593416 1.29744-0.6837188 1.6041-1.3674377c0.33026-0.6837189 0.30667-1.5796263-0.0236-2.6641459-0.33026-1.0845196-0.80205-1.791815-1.43897-2.1926157-0.63693-0.3772242-1.34462-0.4715302-2.12308-0.2121886-0.77846 0.2357651-1.32103 0.6837189-1.65128 1.3674377-0.33026 0.6837189-0.28308 1.5560499 0.0472 2.6169929z"/>
       </g>
       <g id="Country" transform="translate(87.753846,27.348754)" fill="#000000">
        <path id="path1206" d="m0.14153846 9.7135231 1.86358974-9.61921705 4.0810256 0.77802491c1.0379488 0.18861214 1.7692308 0.42437724 2.1938462 0.68371884 0.4246154 0.2593417 0.7548718 0.6365659 0.9435897 1.1316726 0.188718 0.4951068 0.2358975 1.0373666 0.1179488 1.6032029-0.1415385 0.7308718-0.4717949 1.2731316-0.9907693 1.6739323-0.5189743 0.3772242-1.2030769 0.5658363-2.0758974 0.5186833 0.3774359 0.3300712 0.6605128 0.6601424 0.8728205 1.0137901 0.2123077 0.3536476 0.4953846 0.9430605 0.8020513 1.7682384l0.8020513 2.0983096-2.3117949-0.447954-0.9907692-2.357651c-0.3538462-0.8487544-0.6133334-1.3910142-0.7548718-1.6032028-0.1415385-0.2357652-0.3066667-0.4008007-0.4953846-0.5186833-0.188718-0.1178826-0.5189744-0.2121886-0.9671795-0.3064947l-0.4010257-0.0707295-0.7784615 4.0080073zm3.01948714-5.1632562 1.4389744 0.2829181c0.92 0.1886121 1.5097436 0.2593417 1.7692308 0.2121887 0.2358974-0.0235766 0.4482051-0.1414591 0.6133333-0.3064947s0.2830769-0.4008007 0.3302564-0.6837189c0.0707692-0.3300711 0.0235898-0.5894128-0.1179487-0.8251779s-0.3538462-0.4008007-0.6605128-0.5186833c-0.1415385-0.047153-0.6133334-0.1650356-1.4153846-0.3064946l-1.5097436-0.2829182z"/>
        <polygon id="polygon1208" points="13.304615 2.2397687 20.475897 3.4421708 20.19282 5.0689502 14.979487 4.1966192 14.625641 6.3420818 19.485128 7.1672598 19.202051 8.7940391 14.342564 7.9688612 13.894359 10.585854 19.29641 11.505338 19.013333 13.132117 11.676923 11.882562"/>
        <path id="path1210" d="m22.504615 13.674377 1.415385-9.6899464 3.137436 0.4479537c1.179487 0.1650356 1.957949 0.3300712 2.311795 0.4951068 0.542564 0.2357651 0.943589 0.6129893 1.250256 1.1552491s0.401026 1.2024021 0.283077 1.9568506c-0.09436 0.5894128-0.259487 1.0845195-0.542564 1.4617437s-0.589744 0.6601425-0.96718 0.8251785c-0.377435 0.188612-0.731282 0.282918-1.085128 0.306494-0.471795 0.02358-1.155897-0.02358-2.052307-0.165035l-1.273847-0.188613-0.542564 3.65436zm3.137436-7.7566724-0.401025 2.758452 1.061538 0.1650356c0.778462 0.1178825 1.297436 0.1414591 1.580513 0.07073 0.283077-0.07073 0.495384-0.1886121 0.684103-0.3772242 0.188717-0.1886121 0.283076-0.4243772 0.330256-0.7308719 0.04718-0.3536477 0-0.6601423-0.188718-0.919484-0.165128-0.2593421-0.424615-0.4479542-0.731282-0.5422603-0.235898-0.0707295-0.684103-0.1650355-1.391795-0.2593416z"/>
        <path id="path1212" d="m34.558974 5.4933274 1.957949 0.2357651-0.636923 5.2575625c-0.09436 0.825178-0.141539 1.391014-0.117949 1.626779 0.02359 0.400801 0.188718 0.754449 0.471795 1.037367s0.707692 0.447953 1.250257 0.518683c0.566153 0.07073 0.990769 0 1.297436-0.188612 0.306666-0.188612 0.518974-0.447954 0.613333-0.778025 0.09436-0.330071 0.188718-0.872331 0.283077-1.650356l0.660512-5.3754447 1.957949 0.2357651-0.613333 5.0925266c-0.141538 1.155249-0.306667 1.980427-0.471795 2.451957-0.165128 0.471531-0.401026 0.848755-0.731282 1.15525-0.330256 0.306494-0.731282 0.518683-1.250256 0.660142-0.495385 0.141459-1.132308 0.165035-1.91077 0.07073-0.92-0.117882-1.627692-0.306494-2.075897-0.589412-0.448205-0.282919-0.802051-0.589413-1.037949-0.966638-0.235897-0.377224-0.377436-0.754448-0.424615-1.155249-0.07077-0.565836-0.02359-1.391014 0.117949-2.49911zm2.736411-0.2357651 1.155897-1.8625445 2.099487 0.2593416-2.075897 1.7682385z"/>
        <path id="path1214" d="m46.02359 6.8371886 3.892307 0.3772242c0.778462 0.07073 1.344616 0.1650356 1.722052 0.2593417 0.377436 0.094306 0.707692 0.2593416 0.967179 0.4951067 0.283077 0.2357651 0.495385 0.5186833 0.660513 0.8959075 0.165128 0.3536477 0.235898 0.7544484 0.188718 1.1788253-0.04718 0.447954-0.212308 0.872331-0.495385 1.225979s-0.636923 0.612989-1.085128 0.754448c0.566154 0.235766 1.014359 0.565837 1.273846 1.01379 0.283077 0.447954 0.401026 0.943061 0.330257 1.508897-0.04718 0.447954-0.188718 0.872331-0.424616 1.273132-0.235897 0.400801-0.566153 0.707295-0.943589 0.919484-0.377436 0.212188-0.825641 0.330071-1.368206 0.330071-0.330256 0-1.132307-0.04715-2.382564-0.165036l-3.326154-0.330071zm1.415384 5.7055164-0.259487 2.593416 1.81641 0.188612c0.707693 0.07073 1.155898 0.09431 1.344616 0.07073 0.306666-0.02358 0.542564-0.141459 0.754872-0.330071 0.212307-0.188613 0.330256-0.447954 0.353846-0.801602 0.02359-0.282918-0.02359-0.54226-0.141539-0.754448-0.117948-0.212189-0.306666-0.377225-0.566154-0.495107-0.259487-0.117883-0.825641-0.212189-1.722051-0.306495zm0.377436-3.8901249-0.212307 2.2633449 1.297435 0.117883c0.778462 0.07073 1.250257 0.117882 1.438975 0.117882 0.330256 0 0.613333-0.09431 0.825641-0.282918 0.212307-0.165035 0.330256-0.424377 0.353846-0.730872 0.02359-0.3064943-0.02359-0.5422594-0.188718-0.754448-0.141538-0.2121886-0.377436-0.3536477-0.707692-0.4243773-0.188718-0.047153-0.754872-0.1178825-1.674872-0.1886121z"/>
        <polygon id="polygon1216" points="57.535385 7.9924377 59.516923 8.1338968 58.90359 16.173488 63.810256 16.550712 63.692308 18.201068 56.804103 17.682384"/>
        <polygon id="polygon1218" points="67.466667 8.6290036 69.448205 8.7468861 68.882051 18.507562 66.900513 18.38968"/>
        <path id="path1220" d="m79.025641 15.395463 1.887179 0.683718c-0.330256 1.060944-0.84923 1.838968-1.556923 2.310499-0.707692 0.495106-1.580512 0.707295-2.642051 0.660142-1.297436-0.04715-2.358974-0.54226-3.161026-1.461744-0.802051-0.919484-1.179487-2.145462-1.108717-3.701512 0.07077-1.626779 0.542564-2.876335 1.415384-3.748666 0.872821-0.8723306 2.005128-1.2731313 3.373334-1.2259783 1.203076 0.047153 2.146666 0.4479537 2.877948 1.1788253 0.424616 0.447954 0.731282 1.060943 0.92 1.838968l-1.981538 0.377225c-0.09436-0.518684-0.330257-0.919484-0.684103-1.225979s-0.802051-0.47153-1.321025-0.495107c-0.731283-0.02358-1.321026 0.212189-1.792821 0.707296-0.471795 0.495106-0.731282 1.343861-0.778462 2.49911-0.04718 1.225978 0.141539 2.121886 0.566154 2.664146 0.424616 0.54226 0.99077 0.825178 1.698462 0.848754 0.518974 0.02358 0.990769-0.117882 1.368205-0.447954 0.448205-0.235765 0.731282-0.754448 0.92-1.461743z"/>
        <path id="path1222" d="m93.179487 19.309164-2.146667-0.04715-0.825641-2.239769-3.915897-0.07073-0.849231 2.216193-2.099487-0.02358 3.986667-9.713523 2.099487 0.023577zm-3.562051-3.937278-1.297436-3.654359-1.391795 3.607206z"/>
        <path id="path1224" d="m101.15282 9.5013345 3.60923-0.07073c0.82564-0.023577 1.43898 0.023577 1.86359 0.1414591 0.56616 0.1650355 1.08513 0.4479544 1.48616 0.8723314 0.40102 0.424377 0.73128 0.943061 0.96717 1.55605 0.2359 0.612989 0.35385 1.391014 0.35385 2.310497 0.0236 0.801603-0.0708 1.508897-0.25949 2.09831-0.23589 0.707295-0.56615 1.296708-1.01436 1.744662-0.33025 0.330071-0.80205 0.612989-1.3682 0.801601-0.42462 0.14146-1.01436 0.235766-1.74564 0.235766l-3.72718 0.07073zm2.02872 1.6032025 0.11795 6.483541 1.48615-0.02358c0.54256 0 0.94359-0.04715 1.20308-0.117883 0.33025-0.09431 0.58974-0.235765 0.80205-0.424377s0.37744-0.518683 0.49538-0.943061c0.11795-0.424377 0.18872-1.037366 0.16513-1.791815-0.0236-0.754448-0.0944-1.343861-0.2359-1.744661-0.14153-0.400801-0.33025-0.707296-0.58974-0.943061-0.2359-0.212188-0.54256-0.377224-0.92-0.447954-0.28308-0.04715-0.82564-0.07073-1.62769-0.07073z"/>
        <polygon id="polygon1226" points="112.66461 9.2184164 119.93026 8.9119217 120.00103 10.562278 114.71692 10.798043 114.81128 12.967082 119.71795 12.754893 119.78872 14.405249 114.88205 14.617438 115 17.281584 120.47282 17.045818 120.54359 18.696174 113.08923 19.002669"/>
        <path id="path1228" d="m138.04718 17.493772-2.14667 0.165036-1.01436-2.145463-3.8923 0.306495-0.63693 2.286922-2.09948 0.165035 3.06666-10.0435941 2.0759-0.1650356zm-3.9159-3.58363-1.62769-3.5129-1.03795 3.725089z"/>
        <polygon id="polygon1230" points="146.53949 13.415036 145.87897 6.9079182 147.69538 6.7193061 148.68615 16.456406 146.70461 16.645018 142.12821 10.68016 142.76513 17.022242 140.97231 17.234431 139.98154 7.497331 141.89231 7.3087189"/>
        <path id="path1232" d="m156.70667 11.882562-0.21231-1.626779 4.22256-0.5422599 0.49539 3.8665479c-0.35385 0.447954-0.92 0.872331-1.65128 1.273132-0.73129 0.400801-1.50975 0.660142-2.3118 0.754448-1.01436 0.117883-1.93436 0.02358-2.73641-0.306494-0.80205-0.330072-1.46256-0.872331-1.93436-1.603203-0.47179-0.754449-0.77846-1.579627-0.89641-2.522687-0.11795-1.01379-0.0236-1.9332741 0.30667-2.7820286 0.33025-0.8487544 0.87282-1.5088968 1.62769-2.0511566 0.58974-0.4008007 1.34462-0.6601423 2.26462-0.7780249 1.20307-0.141459 2.17025-0.023576 2.92512 0.4008007 0.73129 0.4243773 1.27385 1.0609431 1.58052 1.9332741l-1.91077 0.6129893c-0.18872-0.4715302-0.49539-0.8016014-0.92-1.0373665-0.42462-0.2357652-0.89641-0.3064947-1.46257-0.2357652-0.84923 0.1178826-1.50974 0.4715303-1.93436 1.0609431-0.4482 0.6129893-0.58974 1.4381672-0.4482 2.5226866 0.14154 1.155249 0.51897 1.980427 1.08513 2.499111 0.58974 0.518683 1.29743 0.707295 2.12307 0.612989 0.40103-0.04715 0.80206-0.188612 1.20308-0.400801 0.40103-0.212188 0.73128-0.447954 0.99077-0.730872l-0.16513-1.225978z"/>
        <path id="path1234" d="m163.90154 9.6899466c-0.14154-0.9902135-0.11795-1.838968 0.07077-2.5462633 0.14154-0.5186833 0.37743-1.0137901 0.70769-1.4617438s0.6841-0.8016014 1.10872-1.0609431c0.56615-0.3536477 1.25025-0.5894128 2.02872-0.7072953 1.41538-0.2121886 2.64205 0.047153 3.63282 0.8016014s1.6041 1.9096975 1.84 3.4893238c0.23589 1.5560499 0 2.8527577-0.7077 3.8665477-0.70769 1.01379-1.79282 1.62678-3.2082 1.838968-1.43898 0.212189-2.64205-0.04715-3.63282-0.801601-0.99077-0.754448-1.6041-1.886121-1.84-3.4185944zm2.00513-0.3772242c0.16512 1.0845196 0.54256 1.8861206 1.1323 2.3812276 0.58975 0.495107 1.27385 0.683719 2.05231 0.565837 0.77846-0.117883 1.36821-0.495107 1.79282-1.131673 0.42462-0.636566 0.54257-1.5088969 0.37744-2.6405695-0.16513-1.1080961-0.54257-1.9096975-1.10872-2.3812278-0.56615-0.4715302-1.25026-0.6365658-2.05231-0.5186833-0.80205 0.1178826-1.41538 0.4951068-1.81641 1.1316726-0.42461 0.6129894-0.54256 1.4853203-0.37743 2.5934164z"/>
        <polygon id="polygon1236" points="175.74359 2.899911 177.70154 2.5698399 179.09333 10.515125 183.92923 9.6663701 184.21231 11.29315 177.41846 12.471975"/>
        <path id="path1238" d="m196.10154 8.9590747-2.09949 0.4243773-1.27385-2.0040036-3.84512 0.7544484-0.35385 2.3340752-2.05231 0.4008 1.84-10.3500887 2.05231-0.40080071zm-4.34051-3.0885231-2.02872-3.3007117-0.58975 3.819395z"/>
       </g>
      </g>
      <g id="Slogan" transform="translate(112.99487,339.73754)" fill="#000000">
       <g id="Production" transform="translate(18.635897,38.66548)">
        <path id="path1242" d="m3.68 10.232206h-1.745641v4.786032h-1.7692308v-12.0947505h3.4912821c2.3825641 0 4.2697436 1.0845196 4.2697436 3.6543595 0.0235897 2.5698398-1.8635898 3.654359-4.2461539 3.654359zm0-5.7055156h-1.745641v4.0787366h1.745641c1.3446154 0 2.5005128-0.5658362 2.5005128-2.0511565s-1.1558974-2.0275801-2.5005128-2.0275801z"/>
        <path id="path1244" d="m17.645128 10.255783c-0.353846 0.141459-0.778461 0.235765-1.179487 0.235765l3.396923 4.503114h-2.217436l-3.986666-5.61121h-0.02359v5.61121h-1.769231v-12.094751h3.750769c1.155898 0 2.382564 0.1886121 3.231795 1.0137901 0.778462 0.7308718 1.108718 1.8153914 1.108718 2.852758-0.02359 1.6503558-0.754872 2.947064-2.311795 3.4893239zm-2.170256-5.7290926h-1.86359v4.6209964h1.203077c1.580513 0 3.326154-0.4479537 3.326154-2.3812277 0.02359-1.5088968-1.250257-2.2397687-2.665641-2.2397687z"/>
        <path id="path1246" d="m29.935385 15.230427c-3.467693 0-6.298462-2.805605-6.298462-6.2713523 0-3.4893238 2.80718-6.2713523 6.298462-6.2713523 3.538461 0 6.298461 2.805605 6.298461 6.3185054 0 3.4421712-2.830769 6.2241992-6.298461 6.2241992zm0-10.9395017c-1.88718 0-3.373334 1.01379-4.104616 2.7348754-0.259487 0.6129893-0.424615 1.2495552-0.424615 1.933274 0 0.6601424 0.165128 1.3438613 0.424615 1.9568503 0.754872 1.697509 2.241026 2.687723 4.104616 2.687723 2.005128 0 3.538461-1.155249 4.222564-2.994217 0.188718-0.518684 0.306666-1.0609435 0.306666-1.6267797 0-2.5462634-1.887179-4.691726-4.52923-4.691726z"/>
        <path id="path1248" d="m49.043077 13.25c-1.321026 1.296708-2.901538 1.744662-4.717949 1.744662h-3.868718v-12.094751h3.915898c1.957948 0 3.774359 0.5894128 4.930256 2.2161922 0.778462 1.0845196 1.250257 2.4991103 1.250257 3.8665481 0 1.4145907-0.495385 3.2535587-1.509744 4.2673487zm-0.613333-6.1063167c-0.731283-1.744662-2.217436-2.6169929-4.081026-2.6169929h-2.146667v8.8647686h2.099487c2.76 0 4.458462-1.603203 4.458462-4.4088077 0.02359-0.6129894-0.09436-1.2495552-0.330256-1.838968z"/>
        <path id="path1250" d="m61.946667 14.216637c-0.778462 0.683719-1.792821 1.037367-2.83077 1.037367-1.037948 0-2.052307-0.353648-2.830769-1.037367-0.89641-0.801601-1.226667-1.933274-1.226667-3.1121v-8.1810495h1.769231v8.1338965c0 1.438168 0.778462 2.56984 2.288205 2.56984 1.509744 0 2.288206-1.131672 2.288206-2.56984v-8.1338965h1.76923v8.1810495c0 1.178826-0.306666 2.310499-1.226666 3.1121z"/>
        <path id="path1252" d="m77.209231 5.9884342c-0.92-1.0373666-1.957949-1.6975089-3.396923-1.6975089-2.547693 0-4.505641 2.0983096-4.505641 4.6209964 0 2.4519573 1.957948 4.6917263 4.458461 4.6917263 1.273846 0 2.476923-0.636566 3.302564-1.603203h2.170257c-1.155898 2.051156-3.184616 3.229982-5.54359 3.229982l-0.283077 0.872331c0.141538-0.02358 0.235897-0.02358 0.330257-0.02358 0.778461 0 1.344615 0.61299 1.344615 1.367438 0 0.919484-0.707693 1.55605-1.604103 1.55605-0.802051 0-1.438974-0.54226-1.509743-1.343861h0.87282c0.07077 0.330071 0.353846 0.495107 0.660513 0.495107 0.401026 0 0.684103-0.259342 0.684103-0.660143s-0.306667-0.636566-0.684103-0.636566c-0.212308 0-0.401026 0.07073-0.566154 0.235765l-0.566154-0.518683 0.471795-1.438167c-3.066666-0.447954-5.331282-3.182829-5.331282-6.2477758 0-3.4657473 2.78359-6.2241993 6.227693-6.2241993 1.297435 0 2.642051 0.4243772 3.703589 1.1788256 0.849231 0.6129894 1.368205 1.2495552 1.86359 2.1454627h-2.099487z"/>
        <path id="path1254" d="m90.678974 15.018238-1.344615-3.560053h-4.340513l-1.344615 3.560053h-1.86359l4.6-12.0947505h1.580513l4.6 12.0947505zm-2.288205-13.132117c-0.636923 0-1.698461-0.4243772-2.311795-0.4243772-0.448205 0-0.778461 0.1650356-1.155897 0.3536477l-0.778462-1.0609431c0.518975-0.33007118 1.061539-0.63656584 1.674872-0.63656584 0.613334 0 1.698462 0.44795374 2.311795 0.44795374 0.471795 0 0.89641-0.25934164 1.297436-0.44795374l0.707692 1.03736654c-0.471795 0.4008007-1.061538 0.7308719-1.745641 0.7308719zm-1.179487 3.3007117h-0.02359l-1.556923 4.6209965h3.113846z"/>
        <path id="path1256" d="m101.38872 15.230427c-3.467694 0-6.298464-2.805605-6.298464-6.2713523 0-3.4893238 2.80718-6.2713523 6.298464-6.2713523 3.53846 0 6.29846 2.805605 6.29846 6.3185054 0 3.4421712-2.85436 6.2241992-6.29846 6.2241992zm0-10.9395017c-1.887182 0-3.373335 1.01379-4.104617 2.7348754-0.259488 0.6129893-0.424616 1.2495552-0.424616 1.933274 0 0.6601424 0.165128 1.3438613 0.424616 1.9568503 0.754871 1.697509 2.241025 2.687723 4.104617 2.687723 2.00513 0 3.53846-1.155249 4.22256-2.994217 0.18872-0.518684 0.30667-1.0609435 0.30667-1.6267797 0-2.5462634-1.88718-4.691726-4.52923-4.691726z"/>
       </g>
       <g id="Research" transform="translate(0,17.918149)">
        <polygon id="polygon1259" points="0.16512821 3.0413701 1.9815385 3.0413701 1.9815385 15.442616 0.16512821 15.442616"/>
        <polygon id="polygon1261" points="8.9169231 5.8469751 8.8933333 5.8469751 8.8933333 15.442616 7.0769231 15.442616 7.0769231 3.0413701 9.0584615 3.0413701 15.097436 12.471975 15.121026 12.471975 15.121026 3.0413701 16.937436 3.0413701 16.937436 15.442616 15.050256 15.442616"/>
        <polygon id="polygon1263" points="32.034872 3.0413701 27.057436 15.442616 25.972308 15.442616 20.971282 3.0413701 22.905641 3.0413701 26.514872 12.354093 30.124103 3.0413701"/>
        <polygon id="polygon1265" points="35.90359 15.442616 35.90359 3.0413701 42.603077 3.0413701 42.603077 4.691726 37.72 4.691726 37.72 8.3460854 42.603077 8.3460854 42.603077 9.9964413 37.72 9.9964413 37.72 13.768683 42.603077 13.768683 42.603077 15.419039 35.90359 15.419039"/>
        <path id="path1267" d="m50.246154 15.678381c-2.264616 0-3.821539-1.650356-3.821539-3.913701h1.816411c0 1.202402 0.707692 2.239768 2.005128 2.239768 1.250256 0 2.005128-0.895907 2.005128-2.098309 0-1.320285-0.967179-1.62678-2.005128-2.0275803-1.934359-0.7308719-3.467693-1.2967082-3.467693-3.725089 0-1.933274 1.580513-3.3714412 3.467693-3.3714412 2.052308 0 3.562051 1.3674377 3.562051 3.4421708h-1.81641c0-1.0609431-0.660513-1.791815-1.745641-1.791815-0.89641 0-1.651282 0.7780249-1.651282 1.6975089 0 2.6405694 5.47282 1.0609431 5.47282 5.7762458 0 2.239769-1.604102 3.772242-3.821538 3.772242z"/>
        <polygon id="polygon1269" points="57.181539 3.0413701 63.763077 3.0413701 63.763077 4.691726 61.380513 4.691726 61.380513 15.442616 59.564103 15.442616 59.564103 4.691726 57.181539 4.691726"/>
        <polygon id="polygon1271" points="67.749744 3.0413701 69.566154 3.0413701 69.566154 15.442616 67.749744 15.442616"/>
        <path id="path1273" d="m83.083077 15.065392c-0.849231 0.377224-1.769231 0.612989-2.689231 0.612989-3.562051 0-6.345641-2.876335-6.345641-6.4128116 0-3.5600534 2.76-6.4599644 6.345641-6.4599644 2.335385 0 4.458462 1.2967082 5.56718 3.3478647h-2.123077c-0.92-1.0373665-1.957949-1.6975088-3.396923-1.6975088-2.618462 0-4.6 2.2633451-4.6 4.8096085 0 2.5226866 2.052307 4.7388786 4.6 4.7388786 1.981538 0 3.562051-1.249555 4.269743-3.088523h-5.779487v-1.6503556h7.855385c-0.04718 2.5462636-1.368205 4.7388786-3.70359 5.7998226z"/>
        <path id="path1275" d="m99.242051 15.442616-1.368205-3.65436h-4.458461l-1.368206 3.65436h-1.910769l4.717949-12.4012459h1.627692l4.717949 12.4012459zm-3.562051-10.0671712h-0.02359l-1.604102 4.7388792h3.208205z"/>
        <path id="path1277" d="m113.65538 6.2006228c-0.94359-1.0609431-2.00512-1.7446619-3.49128-1.7446619-2.61846 0-4.6 2.1690391-4.6 4.738879 0 2.5226871 2.00513 4.8096081 4.57641 4.8096081 1.29744 0 2.54769-0.660142 3.39693-1.650355h2.24102c-1.17949 2.098309-3.27897 3.300711-5.68513 3.300711l-0.28307 0.895908c0.14154-0.02358 0.25948-0.02358 0.33025-0.02358 0.77846 0 1.36821 0.61299 1.36821 1.414591 0 0.94306-0.73128 1.603203-1.65128 1.603203-0.82564 0-1.48616-0.54226-1.55693-1.367438h0.89641c0.0708 0.330071 0.35385 0.518683 0.68411 0.518683 0.40102 0 0.70769-0.259341 0.70769-0.683718 0-0.400801-0.33026-0.660143-0.70769-0.660143-0.21231 0-0.42462 0.09431-0.56616 0.235765l-0.56615-0.54226 0.49538-1.48532c-3.16102-0.447953-5.47282-3.253558-5.47282-6.4128112 0-3.5600534 2.85436-6.3892348 6.39282-6.3892348 1.32103 0 2.71282 0.4243772 3.79795 1.2024021 0.87282 0.6129893 1.3918 1.2731317 1.91077 2.1926156h-2.21744z"/>
        <path id="path1279" d="m127.47897 15.442616-1.3682-3.65436h-4.45846l-1.36821 3.65436h-1.91077l4.71795-12.4012459h1.62769l4.71795 12.4012459zm-2.33538-13.4386124c-0.66051 0-1.74564-0.4243773-2.35897-0.4243773-0.44821 0-0.77847 0.1650356-1.17949 0.3772242l-0.77846-1.08451954c0.51897-0.33007117 1.08512-0.66014235 1.72205-0.66014235 0.63692 0 1.74564 0.44795374 2.35897 0.44795374 0.49539 0 0.92-0.25934164 1.34462-0.47153025l0.73128 1.0609431c-0.54256 0.4008007-1.1559 0.7544484-1.84 0.7544484zm-1.22667 3.3714412h-0.0236l-1.6041 4.7388792h3.20821z"/>
        <path id="path1281" d="m138.4482 15.678381c-3.56205 0-6.46359-2.876335-6.46359-6.4363881 0-3.5836299 2.87795-6.4363879 6.46359-6.4363879 3.63283 0 6.46359 2.8763345 6.46359 6.4599644 0 3.5364766-2.92512 6.4128116-6.46359 6.4128116zm0-11.2224201c-1.93435 0-3.4441 1.0373665-4.19897 2.8056049-0.25949 0.6129894-0.42462 1.2967082-0.42462 1.9804271 0 0.6837188 0.16513 1.3674381 0.42462 2.0040031 0.77846 1.744662 2.28821 2.758452 4.19897 2.758452 2.05231 0 3.63283-1.178825 4.31693-3.064946 0.21231-0.518684 0.33025-1.0845198 0.33025-1.6503561 0-2.6169929-1.93435-4.833185-4.64718-4.833185z"/>
       </g>
       <g id="Teaching" transform="translate(37.74359)">
        <polygon id="polygon1284" points="0.14153846 12.354093 0.14153846 0.3772242 6.6051282 0.3772242 6.6051282 1.9804271 1.8871795 1.9804271 1.8871795 5.5169039 6.6051282 5.5169039 6.6051282 7.1201068 1.8871795 7.1201068 1.8871795 10.774466 6.6051282 10.774466 6.6051282 12.377669 0.14153846 12.377669"/>
        <polygon id="polygon1286" points="13.021539 3.0885231 12.997949 3.0885231 12.997949 12.354093 11.252308 12.354093 11.252308 0.3772242 13.163077 0.3772242 18.989744 9.5013345 19.013333 9.5013345 19.013333 0.3772242 20.758974 0.3772242 20.758974 12.354093 18.942564 12.354093"/>
        <path id="path1288" d="m28.449231 12.566281c-2.193846 0-3.70359-1.603203-3.70359-3.7722418h1.745641c0 1.1552491 0.684103 2.1690388 1.934359 2.1690388 1.203077 0 1.934359-0.848754 1.934359-2.0275798 0-1.2731317-0.92-1.5796263-1.934359-1.9568505-1.86359-0.7072954-3.349744-1.2731317-3.349744-3.6072064 0-1.8625445 1.533334-3.25355874 3.349744-3.25355874 2.005128 0 3.444103 1.32028474 3.444103 3.34786474h-1.745641c0-1.0373665-0.636924-1.7446619-1.674872-1.7446619-0.872821 0-1.604103 0.7544484-1.604103 1.6267794 0 2.5462633 5.284103 1.01379 5.284103 5.5640569 0 2.1926153-1.533334 3.6543593-3.68 3.6543593z"/>
        <polygon id="polygon1290" points="36.257436 0.3772242 38.003077 0.3772242 38.003077 12.354093 36.257436 12.354093"/>
        <polygon id="polygon1292" points="44.726154 3.0885231 44.702564 3.0885231 44.702564 12.354093 42.956923 12.354093 42.956923 0.3772242 44.867692 0.3772242 50.694359 9.5013345 50.717949 9.5013345 50.717949 0.3772242 52.46359 0.3772242 52.46359 12.354093 50.64718 12.354093"/>
        <path id="path1294" d="m63.008205 12.566281c-3.444102 0-6.251282-2.7820283-6.251282-6.2241992 0-3.4657473 2.78359-6.22419924 6.251282-6.22419924 3.491282 0 6.251282 2.75845194 6.251282 6.24777584 0 3.4421708-2.830769 6.2006226-6.251282 6.2006226zm0-10.8451956c-1.86359 0-3.349743 1.01379-4.057436 2.7112989-0.259487 0.5894128-0.424615 1.2495552-0.424615 1.9096975 0 0.6601424 0.165128 1.3202847 0.424615 1.9332741 0.754872 1.6739324 2.217436 2.6641461 4.057436 2.6641461 1.981539 0 3.491282-1.1316728 4.175385-2.9706408 0.188718-0.4951067 0.306666-1.060943 0.306666-1.6032028 0.02359-2.5226869-1.863589-4.644573-4.482051-4.644573z"/>
       </g>
      </g>
      <g id="Sun" transform="translate(125.96923,163.621)">
       <g id="Sunrays" fill="#000000">
        <path id="path1298" d="m57.228718 66.108541c-0.04718 0-0.09436 0-0.141539-0.02358-0.377435-0.07073-0.636923-0.447953-0.542564-0.848754l9.766154-46.563612c0.07077-0.377224 0.448205-0.636566 0.849231-0.54226 0.377436 0.07073 0.636923 0.447954 0.542564 0.848754l-9.766154 46.563616c-0.09436 0.353647-0.377436 0.565836-0.707692 0.565836z"/>
        <path id="path1300" d="m63.550769 49.298487c-0.07077 0-0.141538-0.02358-0.212308-0.04715-0.377435-0.117882-0.566153-0.518683-0.448205-0.895907l13.446154-40.3158392c0.117949-0.3772243 0.518975-0.5658363 0.896411-0.4479538 0.377435 0.1178826 0.566153 0.5186833 0.448205 0.8959075l-13.446154 40.3158365c-0.09436 0.306494-0.377436 0.495106-0.684103 0.495106z"/>
        <path id="path1302" d="m66.971282 49.911477c-0.09436 0-0.188718-0.02358-0.283077-0.07073-0.353846-0.165035-0.518974-0.589413-0.353846-0.94306l10.521026-23.505783c0.165128-0.353648 0.589743-0.518683 0.943589-0.353648 0.353847 0.165036 0.518975 0.589413 0.353847 0.943061l-10.521026 23.505783c-0.117949 0.282918-0.377436 0.424377-0.660513 0.424377z"/>
        <path id="path1304" d="m69.188718 49.911477c-0.141539 0-0.283077-0.04715-0.401026-0.117883-0.330256-0.212188-0.401025-0.660142-0.188718-0.990213l20.475898-29.6121c0.212307-0.330071 0.660513-0.400801 0.990769-0.188612s0.401026 0.660142 0.188718 0.990214l-20.475897 29.612099c-0.141539 0.212189-0.377436 0.306495-0.589744 0.306495z"/>
        <path id="path1306" d="m68.504615 53.612989c-0.188718 0-0.377436-0.07073-0.518974-0.212188-0.259487-0.282918-0.259487-0.730872 0.02359-0.990214l19.437949-18.271797c0.283076-0.259342 0.731281-0.259342 0.990769 0.02358 0.259487 0.282919 0.259487 0.730872-0.02359 0.990214l-19.437949 18.271793c-0.117948 0.117883-0.283077 0.188612-0.471795 0.188612z"/>
        <path id="path1308" d="m72.255385 56.654359c-0.212308 0-0.401026-0.09431-0.542564-0.259341-0.259488-0.306495-0.212308-0.754449 0.09436-0.990214l24.981537-20.558719c0.306667-0.259341 0.754872-0.212188 0.990769 0.09431 0.259487 0.306495 0.212308 0.754449-0.09436 0.990214l-24.981537 20.558715c-0.141539 0.117882-0.306667 0.165035-0.448205 0.165035z"/>
        <path id="path1310" d="m73.128205 59.625c-0.235897 0-0.495385-0.117883-0.613333-0.353648-0.188718-0.330071-0.07077-0.778025 0.259487-0.966637l23.070769-13.226423c0.330257-0.188612 0.778462-0.07073 0.96718 0.259342 0.188718 0.330071 0.07077 0.778024-0.259488 0.966636l-23.070769 13.226424c-0.117948 0.04715-0.235897 0.09431-0.353846 0.09431z"/>
        <path id="path1312" d="m57.228718 66.108541c-0.401026 0-0.707692-0.306495-0.707692-0.707295v-64.6232211c0-0.40080071 0.306666-0.70729537 0.707692-0.70729537s0.707692 0.30649466 0.707692 0.70729537v64.6232211c0 0.4008-0.330256 0.707295-0.707692 0.707295z"/>
        <path id="path1314" d="m54.25641 47.435943c-0.353846 0-0.660513-0.259342-0.707692-0.612989l-4.128205-29.54137c-0.04718-0.377225 0.212307-0.754449 0.613333-0.801602 0.377436-0.04715 0.754872 0.212189 0.802051 0.612989l4.128206 29.541371c0.04718 0.377224-0.212308 0.754448-0.613334 0.801601z"/>
        <path id="path1316" d="m50.128205 50.689502c-0.306666 0-0.566154-0.188612-0.684102-0.495107l-13.564103-41.730427c-0.117949-0.3772242 0.07077-0.7780249 0.448205-0.8959075 0.377436-0.1178826 0.778462 0.094306 0.89641 0.4479537l13.564103 41.7304268c0.117949 0.377225-0.07077 0.778025-0.448205 0.895908-0.07077 0.04715-0.141539 0.04715-0.212308 0.04715z"/>
        <path id="path1318" d="m46.283077 49.911477c-0.259487 0-0.495385-0.141459-0.636923-0.377224l-12.313846-24.236655c-0.188718-0.353648-0.04718-0.778025 0.306666-0.943061 0.353846-0.165035 0.778462-0.04715 0.94359 0.306495l12.313846 24.236655c0.188718 0.353647 0.04718 0.778025-0.306666 0.94306-0.09436 0.04715-0.212308 0.07073-0.306667 0.07073z"/>
        <path id="path1320" d="m43.876923 50.689502c-0.212308 0-0.401026-0.09431-0.542564-0.259342l-26.845128-32.794929c-0.235898-0.306494-0.212308-0.754448 0.09436-0.990213 0.306666-0.235765 0.754871-0.212189 0.990769 0.09431l26.845128 32.794929c0.235898 0.306494 0.212308 0.754448-0.09436 0.990213-0.141538 0.117883-0.306667 0.165036-0.448205 0.165036z"/>
        <path id="path1322" d="m38.286154 51.373221c-0.165128 0-0.353846-0.07073-0.471795-0.188612l-16.654359-15.27758c-0.283077-0.259342-0.306667-0.707296-0.04718-0.990214s0.707692-0.306495 0.990769-0.04715l16.654359 15.27758c0.283077 0.259342 0.306666 0.707295 0.04718 0.990214-0.141538 0.165035-0.330256 0.235765-0.518974 0.235765z"/>
        <path id="path1324" d="m33.945641 53.612989c-0.117949 0-0.259487-0.04715-0.377436-0.117882l-27.6235896-17.493773c-0.3302564-0.212188-0.4246154-0.636565-0.2123077-0.966637 0.2123077-0.330071 0.6369231-0.424377 0.9671795-0.212188l27.6235898 17.493772c0.330256 0.212189 0.424615 0.636566 0.212308 0.966637-0.117949 0.212189-0.353846 0.330071-0.589744 0.330071z"/>
        <path id="path1326" d="m32.034872 57.031584c-0.09436 0-0.188718-0.02358-0.283077-0.07073l-17.031795-7.733096c-0.353846-0.165036-0.518974-0.589413-0.353846-0.943061 0.165128-0.353647 0.589743-0.518683 0.94359-0.353647l17.031794 7.733096c0.353847 0.165035 0.518975 0.589413 0.353847 0.94306-0.117949 0.259342-0.377436 0.424378-0.660513 0.424378z"/>
        <path id="path1328" d="m33.214359 61.629004c-0.07077 0-0.117949 0-0.188718-0.02358l-32.3651282-8.629c-0.3774359-0.09431-0.61333333-0.495107-0.49538462-0.872332 0.094359-0.377224 0.49538462-0.612989 0.87282052-0.495106l32.3651283 8.629003c0.377436 0.09431 0.613333 0.495107 0.495385 0.872331-0.09436 0.306495-0.377436 0.518684-0.684103 0.518684z"/>
        <path id="path1330" d="m10.072821 65.141904c-0.3774364 0-0.684103-0.306495-0.7076928-0.683719-0.02359-0.400801 0.2830769-0.730872 0.6841028-0.730872l26.467692-1.108096c0.401026-0.02358 0.731282 0.282918 0.731282 0.683719 0.02359 0.400801-0.283077 0.730872-0.684102 0.730872l-26.467693 1.108096z"/>
       </g>
       <ellipse id="ellipse1333" cx="57.228718" cy="65.401245" rx="33.355896" ry="33.337189" fill="#ffff00"/>
      </g>
      <g id="Book" transform="translate(92,221.38345)">
       <g id="Pages">
        <g id="g1360" transform="translate(.471795 .707295)">
         <g id="g113" fill="#ffffff">
          <path id="path1336" d="m173.90359 20.582295c0.40102 5.446175 3.27897 46.799378 3.49128 80.089415-5.54359 4.59742-18.51795 4.59742-38.68718 2.35765s-28.89743-4.479538-47.65128-2.7113v-1.178825c18.35282-6.389235 34.55898 0.235765 52.72308 3.418595s30.07692-3.064947 30.07692-3.064947l-3.34974-79.334965 3.34974-0.188612s0.0236 0.212189 0.0472 0.612989z"/>
          <path id="path1338" d="m8.2092308 20.582295c0.02359-0.4008 0.04718-0.612989 0.04718-0.612989l3.3497442 0.188612-3.3497442 79.334965s11.9128212 6.247777 30.0769232 3.064947 34.370256-9.80783 52.723076-3.418595v1.178825c-18.753846-1.768238-27.482051 0.47153-47.651282 2.7113s-33.143589 2.23977-38.6871793-2.35765c0.2123077-33.290037 3.1138462-74.64324 3.4912821-80.089415z"/>
          <path id="path1340" d="m91.05641 97.842527v1.296708c-18.35282-6.389235-34.558974 0.235765-52.723077 3.418595-18.164102 3.18283-30.0769227-3.064947-30.0769227-3.064947l3.3497437-79.334965 0.07077-1.862544h3.538462c-0.566154 10.915925-2.618462 53.094306-3.538462 77.826067 15.215385 9.006229 34.110769 4.149469 46.141538 0.330072 12.05436-3.819396 20.806154-7.662367 33.237948 1.391014z"/>
          <path id="path1342" d="m91.05641 96.097865v1.744662c-12.455384-9.053381-21.183589-5.233986-33.214359-1.414591-12.030769 3.819394-30.926154 8.676154-46.141538-0.330071 0.92-24.731762 2.972308-66.910143 3.538461-77.826068 0.07077-1.320285 0.117949-2.169039 0.141539-2.49911 1.698461 0.09431 2.500513 0 2.500513 0l-3.349744 78.061833s11.558974 6.48354 25.948718 2.923487c14.342564-3.560053 33.874872-19.167704 50.57641-0.660142z"/>
          <path id="path1344" d="m91.05641 92.066281v4.031584c-16.701538-18.531139-36.233846-2.899911-50.6 0.660142-14.389743 3.560053-25.948718-2.923487-25.948718-2.923487l3.349744-78.061833 0.141538-3.1121s0.849231 0.09431 3.396923 0.377224c-0.589743 11.269573-2.618461 50.830961-3.396923 77.024467 10.804103 12.024022 30.076923 3.088523 40.597949-1.980427 10.521026-5.021798 22.268718-5.776246 32.459487 3.98443z"/>
          <path id="path1346" d="m74.850256 0.09430605c6.48718-0.63656584 13.705641 6.31850535 16.206154 11.010231v80.985321c-10.190769-9.760676-21.938461-9.029805-32.459487-3.937278-10.521026 5.06895-29.793846 14.00445-40.597949 1.980427 0.802052-26.193505 2.80718-65.754893 3.396923-77.024466 0.09436-1.980427 0.165129-3.1120996 0.165129-3.1120996s11.275897 3.9372776 21.16 0.7544486c9.860512-3.2299825 25.642051-10.020018 32.12923-10.656584z"/>
          <path id="path1348" d="m170.50667 20.157918 3.34974 79.334965s-11.91282 6.247777-30.07692 3.064947-34.37026-9.80783-52.72308-3.418595v-1.296708c12.45539-9.053381 21.18359-5.233986 33.21436-1.414591 12.03077 3.819394 30.92615 8.676154 46.14154-0.330071-0.92-24.731762-2.97231-66.910143-3.53846-77.826068h3.53846z"/>
          <path id="path1350" d="m164.25538 15.796263 3.34975 78.061833s-11.55898 6.483544-25.94872 2.923488c-14.38974-3.58363-33.92205-19.191281-50.6-0.660143v-4.031583c10.19077-9.760676 21.93846-9.029805 32.45949-3.937278 10.52102 5.06895 29.79384 14.00445 40.59795 1.980427-0.80206-26.193505-2.80718-65.754893-3.39693-77.024466 2.57128-0.282918 3.39693-0.377224 3.39693-0.377224z"/>
          <path id="path1352" d="m166.89744 18.295374c0.56615 10.915925 2.61846 53.094306 3.53846 77.826067-15.21539 9.006229-34.11077 4.149469-46.14154 0.330072-12.03077-3.819396-20.78256-7.638791-33.21436 1.41459v-1.744662c16.70154-18.531138 36.23385-2.899911 50.6 0.660143 14.38974 3.560056 25.94872-2.923488 25.94872-2.923488l-3.34975-78.061833s0.80206 0.09431 2.50052 0c0 0.306495 0.0472 1.178826 0.11795 2.499111z"/>
          <path id="path1354" d="m160.71692 13.061388c0.58975 11.269573 2.61846 50.830961 3.39693 77.024466-10.80411 12.024026-30.07693 3.088523-40.59795-1.980427-10.52103-5.06895-22.26872-5.823399-32.45949 3.937278v-80.985321c2.500513-4.6917256 9.71898-11.6467968 16.20615-11.010231 6.48718 0.63656584 22.26872 7.450178 32.15282 10.633007 9.86052 3.182829 21.16-0.7544483 21.16-0.7544483s0.0472 1.1552493 0.14154 3.1356763z"/>
         </g>
         <path id="path1356" d="m177.39487 20.299377 4.55282 85.889233s-18.70666 0-45.05641 0.4008c-26.34974 0.4008-34.98359 0.3065-37.814357 0-2.830769-0.30649-8.020513-5.35187-8.020513-5.35187v-0.8959c18.75385-1.768241 27.48205 0.47153 47.65128 2.7113 20.16923 2.23976 33.14359 2.23976 38.68718-2.35766-0.21231-33.290031-3.11384-74.643234-3.49128-80.089408z" fill="#000000"/>
         <path id="path1358" d="m91.05641 100.31806v0.89591s-5.189743 5.04537-8.020513 5.35187c-2.830769 0.30649-11.488205 0.4008-37.814359 0-26.349743-0.4008-45.0564098-0.4008-45.0564098-0.4008l4.5528205-85.889239 3.4912821 0.282918c-0.4010257 5.446174-3.2789744 46.799377-3.4912821 80.089411 5.5435903 4.59742 18.5179483 4.59742 38.6871793 2.35765s28.897436-4.455958 47.651282-2.68772z" fill="#000000"/>
        </g>
        <g id="g133" fill="#000000">
         <g id="RightLines" transform="translate(90.820513)">
          <path id="path1362" d="m59.304615 97.394573c-9.718974 0-20.19282-5.045374-26.396923-8.039591-8.445128-4.078736-20.806153-6.695729-31.7989741 3.842972-0.23589739 0.235765-0.61333328 0.212188-0.82564098-0.023577-0.23589743-0.235765-0.21230769-0.612989 0.02358975-0.825178 9.08205133-8.723309 20.5466663-10.114324 33.1200003-4.05516 9.412307 4.550267 28.968205 13.957291 39.748718 2.286922-0.872821-28.386121-3.184616-72.757118-3.514872-79.122776-2.712821 0.825178-12.172308 3.300712-20.782564 0.518683-3.396923-1.084519-7.38359-2.593416-11.606154-4.1494659-7.973334-2.9706405-16.206154-6.0355872-20.405128-6.4363879-6.062564-0.58941278-13.092308 5.9412812-15.6164106 10.7037368-0.1415385 0.282918-0.51897438 0.400801-0.8020513 0.235765-0.28307693-0.141459-0.40102564-0.518683-0.23589744-0.801601 1.39179494-2.6169933 3.98666674-5.5640574 6.77025644-7.6859435 2.4297436-1.8625445 6.1333329-4.00800709 10.0020509-3.63078289 4.340513 0.42437723 12.667693 3.51290039 20.711795 6.50711739 4.222564 1.5796264 8.209231 3.0649467 11.558975 4.149466 9.553846 3.088523 20.664615-0.707295 20.782564-0.754448 0.165128-0.07073 0.377436-0.04715 0.518974 0.07073 0.165128 0.09431 0.259487 0.282919 0.259487 0.447954 0.02359 0.495107 2.642051 49.675712 3.562051 80.160142 0 0.141459-0.04718 0.306495-0.141538 0.400801-4.128205 4.573844-9.412308 6.200623-14.932308 6.200623z"/>
          <path id="path1364" d="m60.083077 99.139235c-2.78359 0-5.779487-0.306495-8.916923-1.08452-3.373334-0.848754-6.982564-2.310498-10.804103-3.866548-12.502564-5.116103-26.65641-10.892349-39.2297433 3.017794-0.2123077 0.235765-0.5897436 0.259342-0.82564103 0.047153-0.23589744-0.212189-0.25948718-0.589413-0.04717949-0.825178 5.85025642-6.483541 12.5497438-9.454182 20.4994868-9.029804 6.888205 0.353647 13.564103 3.064946 20.027693 5.705516 3.774359 1.556049 7.36 2.994217 10.638974 3.819395 12.667692 3.135677 23.259487-1.721086 25.193846-2.687723l-3.444102-80.160142-2.78359 0.306495c-0.330257 0.047153-0.613333-0.188612-0.660513-0.518684-0.047179-0.330071 0.188718-0.612989 0.518974-0.660142l3.396923-0.377224c0.165129-0.02358 0.330257 0.02358 0.448206 0.141459 0.117948 0.117882 0.188718 0.259341 0.212307 0.424377l3.538462 81.150356c0 0.212189-0.117949 0.424377-0.306667 0.54226-0.09436 0.04715-7.36 4.05516-17.45641 4.05516z"/>
          <path id="path1366" d="m59.705641 102.51068c-1.297436 0-2.618462-0.0472-3.939487-0.14146-8.28-0.56584-16.111795-2.805608-22.009231-4.668152-0.87282-0.282919-1.722051-0.54226-2.547692-0.825178-10.521026-3.395018-18.848205-6.082741-30.1476925 2.145462-0.25948722 0.188612-0.63692311 0.141459-0.82564106-0.117882-0.18871795-0.259342-0.14153847-0.636566 0.11794871-0.825178 11.7948718-8.581851 20.3579488-5.823399 31.2092308-2.310498 0.825641 0.259341 1.674872 0.542259 2.547692 0.825178 13.611282 4.314498 31.044103 8.181048 45.363077-0.09431-1.014359-27.183719-3.278974-73.134342-3.609231-79.358541-1.321025 0.04715-1.981538-0.02358-2.005128-0.02358-0.330256-0.04715-0.566154-0.330071-0.518974-0.660142 0.04718-0.330072 0.330256-0.565837 0.660513-0.518684 0 0 0.802051 0.09431 2.406153 0 0.330257-0.02358 0.589744 0.235765 0.613334 0.54226 0.165128 2.805605 2.618461 52.009787 3.65641 80.325178 0 0.212189-0.09436 0.424377-0.283077 0.518683-5.850256 3.442164-12.785641 5.186834-20.688205 5.186834z"/>
          <path id="path1368" d="m63.597949 104.75045c-3.137436 0-6.581539-0.25935-10.261539-0.89591-4.057436-0.7073-8.067692-1.60321-11.93641-2.47554-13.564103-3.01779-26.396923-5.870548-40.48-0.96663-0.30666667 0.11788-0.63692308-0.04716-0.7548718-0.35365-0.11794871-0.306496 0.04717949-0.636567 0.35384616-0.75445 14.4133336-5.021797 27.3876926-2.121886 41.1169226 0.94306 3.868718 0.84876 7.855385 1.74466 11.889231 2.45196 16.088205 2.82918 27.340513-1.9097 29.369231-2.85276l-3.396923-80.254448h-2.972308c-0.330256 0-0.589743-0.259342-0.589743-0.589413s0.259487-0.589413 0.589743-0.589413h3.538462c0.306666 0 0.566154 0.259342 0.589743 0.565836l3.420513 81.197508c0 0.23577-0.117949 0.44796-0.306667 0.54226-0.07077 0.0471-7.831794 4.03159-20.16923 4.03159z"/>
          <path id="path1370" d="m69.589744 105.81139c-6.038975 0-13.210257-0.58941-21.301539-1.48532-4.340513-0.47153-8.23282-0.96664-11.653333-1.41459-12.785641-1.62678-21.230769-2.68773-35.8800002-1.29671-0.33025641 0.0236-0.61333334-0.21219-0.63692308-0.54226-0.02358975-0.33007 0.21230769-0.61299 0.5425641-0.63657 14.7907692-1.391011 23.2830772-0.33007 36.1394872 1.29671 3.420513 0.42438 7.31282 0.91949 11.629744 1.41459 21.962051 2.42838 33.025641 1.83897 38.026666-2.05115-0.235897-33.077852-3.113846-74.454631-3.491282-79.806499l-2.783589 0.141459c-0.330257 0.02358-0.613334-0.235765-0.613334-0.565837-0.02359-0.330071 0.235898-0.612989 0.566154-0.612989l3.349744-0.188612c0.330256-0.02358 0.589743 0.235765 0.613333 0.54226 0.02359 0.447954 3.302564 45.408363 3.538461 80.749558 0 0.18861-0.07077 0.35365-0.212307 0.44795-3.491282 2.92349-9.601026 4.00801-17.833846 4.00801z"/>
          <path id="path1372" d="m19.980513 108.12189c-6.156923 0-9.718974-0.0943-11.3230771-0.25935-2.9958974-0.33007-8.13846154-5.30471-8.37435898-5.5169-0.23589743-0.23576-0.23589743-0.58941-0.0235897-0.82518 0.23589744-0.23576 0.58974359-0.23576 0.82564098-0.0236 1.4153846 1.36743 5.52 4.95106 7.6666667 5.18683 3.1610261 0.35365 14.0830771 0.35365 37.7435901 0 23.401025-0.35365 40.975384-0.37723 44.443077-0.4008l-4.505641-84.663258-2.925129 0.235765c-0.330256 0.02358-0.613333-0.212189-0.636923-0.54226s0.212308-0.612989 0.542564-0.636566l3.538462-0.282918c0.165128-0.02358 0.306666 0.04715 0.424615 0.141459 0.117949 0.09431 0.188718 0.259342 0.212308 0.400801l4.55282 85.889237c0 0.16503-0.04718 0.33007-0.165128 0.44795s-0.259487 0.18861-0.424615 0.18861c-0.188718 0-19.013334 0-45.05641 0.4008-11.747693 0.16504-20.405129 0.25935-26.514872 0.25935z"/>
         </g>
         <g id="LeftLines">
          <path id="path1375" d="m32.931282 97.394573c-5.52 0-10.804103-1.626779-14.908718-6.200623-0.09436-0.117882-0.165128-0.259342-0.141538-0.400801 0.92-30.460854 3.538461-79.665035 3.562051-80.160142 0-0.188612 0.117949-0.353648 0.259487-0.447954 0.165128-0.09431 0.353846-0.117882 0.518974-0.07073 0.117949 0.04715 11.205129 3.842971 20.782565 0.754448 3.373333-1.0845193 7.36-2.5698396 11.558974-4.149466 8.044102-2.994217 16.347692-6.08274016 20.711795-6.50711739 3.868718-0.3772242 7.572307 1.76823839 10.002051 3.63078289 2.78359 2.1454627 5.378462 5.0925267 6.770256 7.6859435 0.141539 0.282918 0.04718 0.636565-0.235897 0.801601-0.283077 0.141459-0.636923 0.04715-0.802051-0.235765-2.524103-4.7624546-9.553846-11.2931486-15.616411-10.7037358-4.198974 0.4243773-12.431794 3.4893239-20.405128 6.4363879-4.222564 1.5796264-8.23282 3.0649469-11.606154 4.1494659-8.610256 2.782029-18.069743 0.306495-20.782564-0.518683-0.330256 6.365658-2.642051 50.736655-3.514871 79.122776 10.780512 11.670369 30.33641 2.263345 39.748717-2.286922 12.596924-6.059164 24.037949-4.668149 33.120001 4.05516 0.235897 0.235765 0.235897 0.589413 0.02359 0.825178-0.235897 0.235765-0.589743 0.235765-0.825641 0.02358-10.99282-10.538701-23.353846-7.898132-31.798974-3.842972-6.227692 2.994217-16.701539 8.039591-26.420513 8.039591z"/>
          <path id="path1377" d="m32.15282 99.139235c-10.09641 0-17.385641-4.008007-17.45641-4.05516-0.188718-0.117883-0.306666-0.306495-0.306666-0.54226l3.467692-81.173932c0-0.165036 0.07077-0.306495 0.212308-0.424378 0.141538-0.117882 0.283076-0.165035 0.448205-0.141459l3.396923 0.377224c0.330256 0.04715 0.566154 0.330072 0.518974 0.660143s-0.330256 0.565836-0.660513 0.518683l-2.783589-0.306495-3.444103 80.160143c1.934359 0.966637 12.526154 5.846976 25.193846 2.687722 3.302564-0.825178 6.864616-2.286922 10.638974-3.819395 6.46359-2.640569 13.139488-5.375445 20.027693-5.705516 7.949743-0.400801 14.67282 2.546263 20.499487 9.029804 0.212308 0.235766 0.188718 0.61299-0.04718 0.825178-0.235898 0.212189-0.613334 0.188612-0.825642-0.04715-12.549743-13.910142-26.727179-8.133897-39.229743-3.017793-3.821539 1.55605-7.430769 3.04137-10.804103 3.866548-3.066666 0.801601-6.062564 1.108096-8.846154 1.108096z"/>
          <path id="path1379" d="m32.530256 102.51068c-7.902564 0-14.837948-1.74467-20.664615-5.186837-0.188718-0.117882-0.306667-0.306494-0.283077-0.518683 1.061539-28.315391 3.491282-77.519573 3.65641-80.325178 0.02359-0.330071 0.283077-0.565836 0.613334-0.54226 1.604102 0.09431 2.382564 0 2.406153 0 0.330257-0.04715 0.613334 0.188612 0.660513 0.518684 0.04718 0.330071-0.188718 0.612989-0.518974 0.660142-0.02359 0-0.684103 0.07073-2.005128 0.02358-0.330257 6.224199-2.594872 52.174822-3.609231 79.358541 14.342564 8.275351 31.751795 4.408801 45.363077 0.09431 0.87282-0.282919 1.698462-0.54226 2.547692-0.825178 10.851282-3.512901 19.414359-6.271353 31.209231 2.310498 0.259487 0.188612 0.330256 0.565836 0.117949 0.825178-0.188718 0.259341-0.566154 0.330071-0.825641 0.117882-11.299488-8.228203-19.626667-5.54048-30.147693-2.145462-0.825641 0.259341-1.674871 0.542259-2.547692 0.825178-5.897436 1.862544-13.729231 4.078735-22.009231 4.668155-1.368205 0.0943-2.68923 0.14146-3.963077 0.14146z"/>
          <path id="path1381" d="m28.637949 104.75045c-12.337436 0-20.0984618-3.98444-20.1928208-4.03159-0.2123077-0.0943-0.3302564-0.33007-0.3066667-0.54226l3.4205125-81.197508c0.02359-0.306494 0.283077-0.565836 0.589744-0.565836h3.538461c0.330257 0 0.589744 0.259342 0.589744 0.589413s-0.259487 0.589413-0.589744 0.589413h-2.972307l-3.3969233 80.254448c2.0287183 0.94306 13.2810253 5.65836 29.3692303 2.85276 4.033847-0.7073 8.044103-1.6032 11.889231-2.45196 13.729231-3.064946 26.70359-5.964857 41.116923-0.94306 0.306667 0.117883 0.471795 0.447954 0.353846 0.75445-0.117948 0.30649-0.448205 0.47153-0.754871 0.35365-14.106667-4.903918-26.915898-2.05116-40.48 0.96663-3.868718 0.87233-7.878975 1.74467-11.936411 2.47554-3.65641 0.63656-7.076923 0.89591-10.237948 0.89591z"/>
          <path id="path1383" d="m22.646154 105.81139c-8.232821 0-14.3425643-1.08452-17.8338463-3.98443-0.1415385-0.11788-0.2123077-0.28292-0.2123077-0.44796 0.2358974-35.317612 3.5148718-80.301598 3.5384615-80.749552 0.02359-0.330071 0.283077-0.565836 0.6133334-0.542259l3.3497441 0.188612c0.330256 0.02358 0.566153 0.306494 0.566153 0.612989s-0.283077 0.565836-0.613333 0.565836l-2.7835898-0.141459c-0.3774359 5.351869-3.2553846 46.728648-3.491282 79.806493 5.0010258 3.89013 16.0646158 4.47954 38.0266668 2.05116 4.340513-0.47153 8.209231-0.96664 11.629743-1.41459 12.856411-1.62678 21.348718-2.711301 36.139488-1.29671 0.330256 0.0236 0.566153 0.30649 0.542564 0.63657-0.02359 0.33007-0.330257 0.56583-0.636923 0.54226-14.649231-1.39102-23.094359-0.3065-35.88 1.2967-3.420513 0.42438-7.312821 0.91949-11.653334 1.41459-8.091282 0.87234-15.262564 1.46175-21.301538 1.46175z"/>
          <path id="path1385" d="m72.255385 108.12189c-6.109744 0-14.76718-0.0943-26.585641-0.25935-26.043077-0.37722-44.8676927-0.4008-45.0564107-0.4008-0.1651282 0-0.30666666-0.0707-0.42461538-0.18861-0.11794872-0.11788-0.16512821-0.28292-0.16512821-0.44795l4.55282059-85.889237c0-0.165036 0.070769-0.306495 0.2123076-0.400801 0.1179488-0.09431 0.283077-0.165035 0.4246154-0.141459l3.5384616 0.282918c0.3302564 0.02358 0.5661538 0.306495 0.5425641 0.636566-0.02359 0.330071-0.3066667 0.565837-0.6369231 0.54226l-2.9251282-0.235765-4.505641 84.663258c3.4676923 0 21.0420513 0.0472 44.4430773 0.4008 23.660512 0.35365 34.582564 0.35365 37.743589 0 2.146667-0.23577 6.274872-3.8194 7.666667-5.18683 0.235897-0.23577 0.613333-0.21219 0.825641 0.0236 0.235897 0.23577 0.212308 0.61299-0.02359 0.82518-0.212307 0.21219-5.378461 5.18683-8.374359 5.5169-1.533333 0.16504-5.118974 0.25935-11.252307 0.25935z"/>
         </g>
         <path id="CenterLine" d="m91.528205 102.51068c-0.330256 0-0.589743-0.25935-0.589743-0.58942v-90.133004c0-0.330071 0.259487-0.589413 0.589743-0.589413 0.330257 0 0.589744 0.259342 0.589744 0.589413v90.133004c0 0.33007-0.259487 0.58942-0.589744 0.58942z"/>
        </g>
       </g>
      </g>
      <g id="Gear" transform="translate(140.83077,142.87366)" fill="#000000">
       <path id="path1391" d="m93.438974 57.738879 8.397946 0.259342c-0.16512 5.210409-0.96718 10.232206-2.358971 15.018238l-8.067693-2.334075c1.203077-4.125889 1.88718-8.463968 2.028718-12.943505z"/>
       <path id="path1393" d="m101.41231 48.756228-8.327182 1.01379c-0.542564-4.432384-1.627692-8.676157-3.208205-12.70774l7.808205-3.064947c1.84 4.668149 3.090262 9.619217 3.727182 14.758897z"/>
       <path id="path1395" d="m88.626667 78.132562 7.619487 3.536477c-2.146667 4.644573-4.883077 8.959075-8.091282 12.872776l-6.48718-5.304715c2.76-3.371442 5.095385-7.096531 6.958975-11.104538z"/>
       <path id="path1397" d="m93.674872 25.698399-7.265641 4.220195c-2.217436-3.795818-4.883077-7.308719-7.949744-10.420818l5.991795-5.870552c3.538462 3.58363 6.652308 7.662367 9.22359 12.071175z"/>
       <path id="path1399" d="m93.462564 56.159253c0 0.542259 0 1.060943-0.02359 1.579626l-11.323077-0.330071c0.02359-0.424377 0.02359-0.825178 0.02359-1.249555 0-1.697509-0.09436-3.347865-0.306667-4.998221l11.228718-1.367438c0.283077 2.074733 0.401026 4.19662 0.401026 6.365659z"/>
       <path id="path1401" d="m82.115897 57.385231 11.323077 0.330071c-0.141538 4.479538-0.825641 8.817616-2.028718 12.943506l-10.874871-3.135676c0.943589-3.229983 1.486154-6.625 1.580512-10.137901z"/>
       <path id="path1403" d="m93.085128 49.770018-11.228718 1.367438c-0.424615-3.465748-1.273846-6.813613-2.524102-9.949289l10.544615-4.125889c1.580513 4.031583 2.665641 8.275356 3.208205 12.70774z"/>
       <path id="path1405" d="m80.535385 67.523132 10.874871 3.135676c-0.731282 2.56984-1.674871 5.06895-2.783589 7.473754l-10.261539-4.762455c0.849231-1.862545 1.580513-3.819395 2.170257-5.846975z"/>
       <path id="path1407" d="m89.876923 37.062278-10.544615 4.125889c-0.754872-1.95685-1.674872-3.819395-2.712821-5.61121l9.789744-5.681939c1.321025 2.286921 2.476923 4.691726 3.467692 7.16726z"/>
       <path id="path1409" d="m78.365128 73.370107 10.261539 4.762455c-1.86359 4.008007-4.198975 7.733096-6.958975 11.104538l-8.775384-7.16726c2.170256-2.64057 4.010256-5.564057 5.47282-8.699733z"/>
       <path id="path1411" d="m86.409231 29.895018-9.789744 5.681939c-1.722051-2.97064-3.821538-5.729092-6.227692-8.157473l8.067692-7.945285c3.066667 3.135676 5.732308 6.625 7.949744 10.420819z"/>
       <path id="path1413" d="m76.147692 94.989769 5.614359 6.224201c-3.774359 3.39502-7.949743 6.3185-12.478974 8.69973l-3.892308-7.4266c3.915898-2.05116 7.525128-4.573844 10.756923-7.497331z"/>
       <path id="path1415" d="m72.892308 82.06984 8.775384 7.16726c-1.674872 2.051156-3.514871 3.98443-5.49641 5.752669l-7.572308-8.416815c1.533334-1.367438 2.972308-2.876335 4.293334-4.503114z"/>
       <path id="path1417" d="m78.459487 19.497776-8.067692 7.945285c-1.462564-1.485321-3.019487-2.852759-4.694359-4.102314l6.770256-9.076957c2.123077 1.579626 4.128205 3.324288 5.991795 5.233986z"/>
       <path id="path1419" d="m77.468718 7.5209075-5.024615 6.7193055c-3.491282-2.616992-7.312821-4.7860315-11.393847-6.4599639l3.184616-7.75667259c4.741538 1.93327399 9.2 4.47953739 13.233846 7.49733099z"/>
       <path id="path1421" d="m68.575385 86.59653 7.572307 8.416815c-3.255384 2.923488-6.864615 5.446175-10.756923 7.497335l-5.260513-10.020022c3.090257-1.626779 5.921026-3.607206 8.445129-5.894128z"/>
       <path id="path1423" d="m72.444103 14.240213-6.770257 9.076958c-2.73641-2.051157-5.732308-3.748666-8.940513-5.06895l4.316923-10.4679719c4.081026 1.6739324 7.902565 3.8665479 11.393847 6.4599639z"/>
       <path id="path1425" d="m60.153846 92.467082 5.260513 10.020018c-2.335385 1.22598-4.788718 2.28692-7.312821 3.15925l-3.65641-10.703734c1.957949-0.683719 3.868718-1.508897 5.708718-2.475534z"/>
       <path id="path1427" d="m61.050256 7.7802491-4.316923 10.4679719c-1.957948-0.801602-4.010256-1.461744-6.109743-1.956851l0.84923-11.4110319c3.326154 0.6601423 6.534359 1.6503558 9.577436 2.899911z"/>
       <path id="path1429" d="m58.077949 105.64635 2.71282 7.94529c-4.741538 1.6032-9.718974 2.66414-14.908718 3.06494l-0.660513-8.36966c4.482052-0.35365 8.775385-1.24955 12.856411-2.64057z"/>
       <path id="path1431" d="m54.421538 94.919039 3.656411 10.703741c-4.081026 1.39101-8.374359 2.31049-12.832821 2.64057l-0.89641-11.269578c3.491282-0.259341 6.864615-0.966637 10.07282-2.074733z"/>
       <path id="path1433" d="m44.348718 96.993772 0.89641 11.269578c-1.344615 0.0943-2.71282 0.16503-4.104615 0.16503-1.297436 0-2.594872-0.0472-3.868718-0.14146l0.825641-11.293148c0.990769 0.07073 2.005128 0.117883 3.019487 0.117883 1.108718 0.02358 2.170256-0.02358 3.231795-0.117883z"/>
       <path id="path1435" d="m38.121026 97.017349-0.825641 11.293151c-4.458462-0.33007-8.775385-1.2024-12.856411-2.59342l3.609231-10.727311c3.184615 1.084519 6.557949 1.768238 10.072821 2.02758z"/>
       <path id="path1437" d="m37.271795 108.28692-0.613333 8.36966c-5.189744-0.37722-10.16718-1.41459-14.908718-2.99421l2.68923-7.94529c4.057436 1.36744 8.374359 2.26335 12.832821 2.56984z"/>
       <path id="path1439" d="m28.048205 94.989769-3.609231 10.727311c-2.547692-0.84875-5.001025-1.9097-7.33641-3.1121l5.213333-10.043592c1.816411 0.94306 3.72718 1.768238 5.732308 2.428381z"/>
       <path id="path1441" d="m22.292308 92.537811-5.213334 10.043599c-3.915897-2.02758-7.5251278-4.526695-10.7805125-7.450182l7.5487175-8.440392c2.547693 2.310498 5.378462 4.267349 8.445129 5.846975z"/>
       <path id="path1443" d="m17.078974 102.60498-3.845128 7.45018c-4.5292306-2.35765-8.7517947-5.25756-12.5261537-8.629l5.5907692-6.247779c3.2553847 2.876334 6.8882055 5.399019 10.7805125 7.426599z"/>
       <path id="path1445" d="m13.847179 86.714413-7.5487175 8.440391c-2.2646154-2.004003-4.3405128-4.220196-6.20410253-6.601423l9.41230773-6.342082c1.3210253 1.626779 2.7835893 3.1121 4.3405123 4.503114z"/>
      </g>
      <g id="Star" transform="translate(162.76923,87.233096)" fill="#ff0000">
       <polygon id="polygon1448" points="13.375385 26.052046 0.21230769 16.079182 16.725128 15.74911 22.150769 0.14145907 27.57641 15.74911 44.089231 16.079182 30.926154 26.052046 35.714872 41.871886 22.150769 32.441281 8.5866667 41.871886"/>
      </g>
     </g>
    </g>
   </g>
  </g>
 </g>
 <metadata id="metadata1540">
  <rdf:RDF>
   <cc:Work rdf:about=""/>
  </rdf:RDF>
 </metadata>
</svg>
